<?xml version="1.0" standalone="no"?>
<!DOCTYPE svg PUBLIC "-//W3C//DTD SVG 20010904//EN"
 "http://www.w3.org/TR/2001/REC-SVG-20010904/DTD/svg10.dtd">
<svg version="1.0" xmlns="http://www.w3.org/2000/svg"
 width="256.000000pt" height="256.000000pt" viewBox="0 0 256.000000 256.000000"
 preserveAspectRatio="xMidYMid meet">
<metadata>
Created by potrace 1.14, written by Peter Selinger 2001-2017
</metadata>
<g transform="translate(0.000000,256.000000) scale(0.100000,-0.100000)"
fill="#000000" stroke="none">
<path d="M360 1868 c0 -2 -58 -235 -130 -518 -71 -283 -125 -519 -121 -523 4
-4 55 -6 112 -5 l104 3 53 205 c29 113 63 266 76 340 l23 135 172 -343 171
-343 103 3 102 3 127 505 c70 278 128 513 128 523 0 15 -12 17 -110 17 l-109
0 -10 -37 c-35 -129 -112 -464 -128 -553 l-19 -105 -134 274 c-74 151 -151
307 -170 345 l-35 71 -102 3 c-57 1 -103 1 -103 0z"/>
<path d="M1436 1772 c-14 -54 -26 -102 -26 -105 0 -4 68 -7 150 -7 83 0 150
-1 150 -2 0 -2 -47 -188 -104 -415 -57 -227 -101 -415 -98 -418 3 -3 54 -5
113 -5 94 0 108 2 113 18 6 19 206 813 206 818 0 2 70 5 156 6 l157 3 23 90
c13 50 24 96 24 103 0 9 -90 12 -419 12 l-418 0 -27 -98z"/>
<path d="M2186 994 c-9 -23 -36 -143 -36 -160 0 -19 162 -21 177 -1 11 13 43
135 43 162 0 23 -175 22 -184 -1z"/>
</g>
</svg>
